<mxfile host="app.diagrams.net" agent="Mozilla/5.0 (X11; Linux x86_64; rv:133.0) Gecko/20100101 Firefox/133.0" version="25.0.3">
  <diagram name="Pàgina-1" id="0kr4PtoBNa5HWBXLd_i-">
    <mxGraphModel dx="1434" dy="759" grid="1" gridSize="10" guides="1" tooltips="1" connect="1" arrows="1" fold="1" page="1" pageScale="1" pageWidth="1169" pageHeight="827" math="0" shadow="0">
      <root>
        <mxCell id="0" />
        <mxCell id="1" parent="0" />
        <mxCell id="LlQjnqk3tfUPxoVJ9QzY-25" value="" style="group" parent="1" vertex="1" connectable="0">
          <mxGeometry x="20" y="30" width="960" height="260" as="geometry" />
        </mxCell>
        <mxCell id="LlQjnqk3tfUPxoVJ9QzY-4" value="" style="edgeStyle=orthogonalEdgeStyle;rounded=0;orthogonalLoop=1;jettySize=auto;html=1;" parent="LlQjnqk3tfUPxoVJ9QzY-25" source="LlQjnqk3tfUPxoVJ9QzY-2" target="LlQjnqk3tfUPxoVJ9QzY-3" edge="1">
          <mxGeometry relative="1" as="geometry" />
        </mxCell>
        <mxCell id="LlQjnqk3tfUPxoVJ9QzY-2" value="entrada usuari" style="rounded=0;whiteSpace=wrap;html=1;" parent="LlQjnqk3tfUPxoVJ9QzY-25" vertex="1">
          <mxGeometry x="20" y="60" width="120" height="60" as="geometry" />
        </mxCell>
        <mxCell id="LlQjnqk3tfUPxoVJ9QzY-6" value="" style="edgeStyle=orthogonalEdgeStyle;rounded=0;orthogonalLoop=1;jettySize=auto;html=1;" parent="LlQjnqk3tfUPxoVJ9QzY-25" source="LlQjnqk3tfUPxoVJ9QzY-3" target="LlQjnqk3tfUPxoVJ9QzY-5" edge="1">
          <mxGeometry relative="1" as="geometry" />
        </mxCell>
        <mxCell id="LlQjnqk3tfUPxoVJ9QzY-10" value="&lt;div&gt;here_doc&lt;/div&gt;" style="edgeStyle=orthogonalEdgeStyle;rounded=0;orthogonalLoop=1;jettySize=auto;html=1;entryX=0.25;entryY=1;entryDx=0;entryDy=0;" parent="LlQjnqk3tfUPxoVJ9QzY-25" source="LlQjnqk3tfUPxoVJ9QzY-3" target="LlQjnqk3tfUPxoVJ9QzY-11" edge="1">
          <mxGeometry relative="1" as="geometry">
            <mxPoint x="420" y="180" as="targetPoint" />
            <Array as="points">
              <mxPoint x="280" y="200" />
              <mxPoint x="650" y="200" />
            </Array>
          </mxGeometry>
        </mxCell>
        <mxCell id="LlQjnqk3tfUPxoVJ9QzY-3" value="tokenitzar en paraules, cometes i operadors" style="rounded=0;whiteSpace=wrap;html=1;" parent="LlQjnqk3tfUPxoVJ9QzY-25" vertex="1">
          <mxGeometry x="220" y="60" width="120" height="60" as="geometry" />
        </mxCell>
        <mxCell id="LlQjnqk3tfUPxoVJ9QzY-12" value="" style="edgeStyle=orthogonalEdgeStyle;rounded=0;orthogonalLoop=1;jettySize=auto;html=1;" parent="LlQjnqk3tfUPxoVJ9QzY-25" source="LlQjnqk3tfUPxoVJ9QzY-5" target="LlQjnqk3tfUPxoVJ9QzY-11" edge="1">
          <mxGeometry relative="1" as="geometry" />
        </mxCell>
        <mxCell id="LlQjnqk3tfUPxoVJ9QzY-5" value="expansió de variables" style="rounded=0;whiteSpace=wrap;html=1;" parent="LlQjnqk3tfUPxoVJ9QzY-25" vertex="1">
          <mxGeometry x="420" y="60" width="120" height="60" as="geometry" />
        </mxCell>
        <mxCell id="LlQjnqk3tfUPxoVJ9QzY-19" style="edgeStyle=orthogonalEdgeStyle;rounded=0;orthogonalLoop=1;jettySize=auto;html=1;exitX=1;exitY=0.5;exitDx=0;exitDy=0;entryX=0;entryY=0.5;entryDx=0;entryDy=0;" parent="LlQjnqk3tfUPxoVJ9QzY-25" source="LlQjnqk3tfUPxoVJ9QzY-11" target="LlQjnqk3tfUPxoVJ9QzY-17" edge="1">
          <mxGeometry relative="1" as="geometry" />
        </mxCell>
        <mxCell id="LlQjnqk3tfUPxoVJ9QzY-11" value="&lt;div&gt;unió de text no terminat&lt;/div&gt;" style="rounded=0;whiteSpace=wrap;html=1;" parent="LlQjnqk3tfUPxoVJ9QzY-25" vertex="1">
          <mxGeometry x="620" y="60" width="120" height="60" as="geometry" />
        </mxCell>
        <mxCell id="LlQjnqk3tfUPxoVJ9QzY-17" value="estructuració en comandes (comanda, arguments i redireccions)" style="rounded=0;whiteSpace=wrap;html=1;" parent="LlQjnqk3tfUPxoVJ9QzY-25" vertex="1">
          <mxGeometry x="820" y="60" width="120" height="60" as="geometry" />
        </mxCell>
        <mxCell id="LlQjnqk3tfUPxoVJ9QzY-23" value="" style="swimlane;startSize=0;" parent="LlQjnqk3tfUPxoVJ9QzY-25" vertex="1">
          <mxGeometry y="30" width="960" height="210" as="geometry" />
        </mxCell>
        <mxCell id="LlQjnqk3tfUPxoVJ9QzY-24" value="&lt;div&gt;&lt;i&gt;parseig&lt;/i&gt;&lt;/div&gt;" style="text;html=1;align=center;verticalAlign=middle;whiteSpace=wrap;rounded=0;fillColor=none;" parent="LlQjnqk3tfUPxoVJ9QzY-25" vertex="1">
          <mxGeometry x="20" width="60" height="30" as="geometry" />
        </mxCell>
        <mxCell id="LlQjnqk3tfUPxoVJ9QzY-40" value="" style="edgeStyle=orthogonalEdgeStyle;rounded=0;orthogonalLoop=1;jettySize=auto;html=1;" parent="1" source="LlQjnqk3tfUPxoVJ9QzY-33" target="LlQjnqk3tfUPxoVJ9QzY-39" edge="1">
          <mxGeometry relative="1" as="geometry" />
        </mxCell>
        <mxCell id="LlQjnqk3tfUPxoVJ9QzY-33" value="sintaxi correcta" style="ellipse;whiteSpace=wrap;html=1;fontStyle=1;startSize=0;" parent="1" vertex="1">
          <mxGeometry x="1050" y="60" width="80" height="80" as="geometry" />
        </mxCell>
        <mxCell id="LlQjnqk3tfUPxoVJ9QzY-34" value="" style="edgeStyle=orthogonalEdgeStyle;rounded=0;orthogonalLoop=1;jettySize=auto;html=1;" parent="1" source="LlQjnqk3tfUPxoVJ9QzY-23" target="LlQjnqk3tfUPxoVJ9QzY-33" edge="1">
          <mxGeometry relative="1" as="geometry" />
        </mxCell>
        <mxCell id="LlQjnqk3tfUPxoVJ9QzY-38" value="" style="edgeStyle=orthogonalEdgeStyle;rounded=0;orthogonalLoop=1;jettySize=auto;html=1;" parent="1" source="LlQjnqk3tfUPxoVJ9QzY-35" target="LlQjnqk3tfUPxoVJ9QzY-37" edge="1">
          <mxGeometry relative="1" as="geometry" />
        </mxCell>
        <mxCell id="LlQjnqk3tfUPxoVJ9QzY-35" value="sintaxi errònia" style="ellipse;whiteSpace=wrap;html=1;fontStyle=1;startSize=0;" parent="1" vertex="1">
          <mxGeometry x="1050" y="210" width="80" height="80" as="geometry" />
        </mxCell>
        <mxCell id="LlQjnqk3tfUPxoVJ9QzY-36" value="" style="edgeStyle=orthogonalEdgeStyle;rounded=0;orthogonalLoop=1;jettySize=auto;html=1;exitX=1;exitY=0.5;exitDx=0;exitDy=0;" parent="1" source="LlQjnqk3tfUPxoVJ9QzY-23" target="LlQjnqk3tfUPxoVJ9QzY-35" edge="1">
          <mxGeometry relative="1" as="geometry" />
        </mxCell>
        <mxCell id="LlQjnqk3tfUPxoVJ9QzY-37" value="retorna NULL" style="rhombus;whiteSpace=wrap;html=1;fontStyle=1;startSize=0;" parent="1" vertex="1">
          <mxGeometry x="1169" y="210" width="140" height="80" as="geometry" />
        </mxCell>
        <mxCell id="LlQjnqk3tfUPxoVJ9QzY-39" value="retorna comandes" style="rhombus;whiteSpace=wrap;html=1;fontStyle=1;startSize=0;" parent="1" vertex="1">
          <mxGeometry x="1169" y="60" width="140" height="80" as="geometry" />
        </mxCell>
        <mxCell id="i20BuGTm-3Fw7s0QcITg-22" value="" style="group" parent="1" vertex="1" connectable="0">
          <mxGeometry x="20" y="340" width="1250" height="386" as="geometry" />
        </mxCell>
        <mxCell id="LlQjnqk3tfUPxoVJ9QzY-28" value="fill" style="edgeStyle=orthogonalEdgeStyle;rounded=0;orthogonalLoop=1;jettySize=auto;html=1;entryX=0;entryY=0.5;entryDx=0;entryDy=0;" parent="i20BuGTm-3Fw7s0QcITg-22" source="LlQjnqk3tfUPxoVJ9QzY-26" target="eV-EMzMvBRZFo2qiKeEg-2" edge="1">
          <mxGeometry relative="1" as="geometry" />
        </mxCell>
        <mxCell id="eV-EMzMvBRZFo2qiKeEg-5" value="&lt;div&gt;pare&lt;/div&gt;" style="edgeStyle=orthogonalEdgeStyle;rounded=0;orthogonalLoop=1;jettySize=auto;html=1;exitX=0.5;exitY=0;exitDx=0;exitDy=0;entryX=0.5;entryY=0;entryDx=0;entryDy=0;" edge="1" parent="i20BuGTm-3Fw7s0QcITg-22" source="LlQjnqk3tfUPxoVJ9QzY-26" target="i20BuGTm-3Fw7s0QcITg-11">
          <mxGeometry relative="1" as="geometry" />
        </mxCell>
        <mxCell id="LlQjnqk3tfUPxoVJ9QzY-26" value="fork" style="rounded=0;whiteSpace=wrap;html=1;" parent="i20BuGTm-3Fw7s0QcITg-22" vertex="1">
          <mxGeometry x="220" y="120" width="120" height="60" as="geometry" />
        </mxCell>
        <mxCell id="i20BuGTm-3Fw7s0QcITg-10" style="edgeStyle=orthogonalEdgeStyle;rounded=0;orthogonalLoop=1;jettySize=auto;html=1;exitX=1;exitY=0.5;exitDx=0;exitDy=0;entryX=0;entryY=0.5;entryDx=0;entryDy=0;" parent="i20BuGTm-3Fw7s0QcITg-22" source="i20BuGTm-3Fw7s0QcITg-8" target="LlQjnqk3tfUPxoVJ9QzY-26" edge="1">
          <mxGeometry relative="1" as="geometry" />
        </mxCell>
        <mxCell id="i20BuGTm-3Fw7s0QcITg-8" value="comandes estructurades en comanda, arguments i redireccions" style="rounded=0;whiteSpace=wrap;html=1;" parent="i20BuGTm-3Fw7s0QcITg-22" vertex="1">
          <mxGeometry x="20" y="120" width="120" height="60" as="geometry" />
        </mxCell>
        <mxCell id="i20BuGTm-3Fw7s0QcITg-19" value="" style="swimlane;startSize=0;" parent="i20BuGTm-3Fw7s0QcITg-22" vertex="1">
          <mxGeometry y="36" width="1250" height="350" as="geometry" />
        </mxCell>
        <mxCell id="eV-EMzMvBRZFo2qiKeEg-6" style="edgeStyle=orthogonalEdgeStyle;rounded=0;orthogonalLoop=1;jettySize=auto;html=1;exitX=1;exitY=0.5;exitDx=0;exitDy=0;entryX=0;entryY=0.5;entryDx=0;entryDy=0;" edge="1" parent="i20BuGTm-3Fw7s0QcITg-19" source="eV-EMzMvBRZFo2qiKeEg-2" target="LlQjnqk3tfUPxoVJ9QzY-27">
          <mxGeometry relative="1" as="geometry" />
        </mxCell>
        <mxCell id="eV-EMzMvBRZFo2qiKeEg-2" value="lectura de here_doc, expansió de variables" style="rounded=0;whiteSpace=wrap;html=1;" vertex="1" parent="i20BuGTm-3Fw7s0QcITg-19">
          <mxGeometry x="420" y="84" width="120" height="60" as="geometry" />
        </mxCell>
        <mxCell id="i20BuGTm-3Fw7s0QcITg-2" value="" style="edgeStyle=orthogonalEdgeStyle;rounded=0;orthogonalLoop=1;jettySize=auto;html=1;" parent="i20BuGTm-3Fw7s0QcITg-19" source="LlQjnqk3tfUPxoVJ9QzY-27" target="i20BuGTm-3Fw7s0QcITg-1" edge="1">
          <mxGeometry relative="1" as="geometry" />
        </mxCell>
        <mxCell id="i20BuGTm-3Fw7s0QcITg-6" value="" style="edgeStyle=orthogonalEdgeStyle;rounded=0;orthogonalLoop=1;jettySize=auto;html=1;" parent="i20BuGTm-3Fw7s0QcITg-19" source="LlQjnqk3tfUPxoVJ9QzY-27" target="i20BuGTm-3Fw7s0QcITg-5" edge="1">
          <mxGeometry relative="1" as="geometry" />
        </mxCell>
        <mxCell id="LlQjnqk3tfUPxoVJ9QzY-27" value="obertura (i tancament si es repeteixen) dels fitxers de redirecció" style="rounded=0;whiteSpace=wrap;html=1;" parent="i20BuGTm-3Fw7s0QcITg-19" vertex="1">
          <mxGeometry x="610" y="84" width="120" height="60" as="geometry" />
        </mxCell>
        <mxCell id="i20BuGTm-3Fw7s0QcITg-15" value="" style="edgeStyle=orthogonalEdgeStyle;rounded=0;orthogonalLoop=1;jettySize=auto;html=1;entryX=0.5;entryY=0;entryDx=0;entryDy=0;" parent="i20BuGTm-3Fw7s0QcITg-19" source="i20BuGTm-3Fw7s0QcITg-1" target="i20BuGTm-3Fw7s0QcITg-16" edge="1">
          <mxGeometry relative="1" as="geometry">
            <mxPoint x="870" y="224" as="targetPoint" />
          </mxGeometry>
        </mxCell>
        <mxCell id="i20BuGTm-3Fw7s0QcITg-1" value="&lt;div&gt;execució (o no si no existeix/no hi ha permisos) / builtin&lt;/div&gt;" style="rounded=0;whiteSpace=wrap;html=1;" parent="i20BuGTm-3Fw7s0QcITg-19" vertex="1">
          <mxGeometry x="810" y="84" width="120" height="60" as="geometry" />
        </mxCell>
        <mxCell id="i20BuGTm-3Fw7s0QcITg-18" style="edgeStyle=orthogonalEdgeStyle;rounded=0;orthogonalLoop=1;jettySize=auto;html=1;exitX=0.5;exitY=1;exitDx=0;exitDy=0;entryX=0.75;entryY=1;entryDx=0;entryDy=0;" parent="i20BuGTm-3Fw7s0QcITg-19" source="i20BuGTm-3Fw7s0QcITg-5" target="i20BuGTm-3Fw7s0QcITg-11" edge="1">
          <mxGeometry relative="1" as="geometry" />
        </mxCell>
        <mxCell id="i20BuGTm-3Fw7s0QcITg-5" value="error obrint fitxers" style="rhombus;whiteSpace=wrap;html=1;rounded=0;fontStyle=1" parent="i20BuGTm-3Fw7s0QcITg-19" vertex="1">
          <mxGeometry x="600" y="220" width="140" height="80" as="geometry" />
        </mxCell>
        <mxCell id="i20BuGTm-3Fw7s0QcITg-11" value="desem sortida i següent comanda/tornem prompt" style="rounded=0;whiteSpace=wrap;html=1;" parent="i20BuGTm-3Fw7s0QcITg-19" vertex="1">
          <mxGeometry x="1010" y="84" width="120" height="60" as="geometry" />
        </mxCell>
        <mxCell id="i20BuGTm-3Fw7s0QcITg-17" style="edgeStyle=orthogonalEdgeStyle;rounded=0;orthogonalLoop=1;jettySize=auto;html=1;exitX=1;exitY=0.5;exitDx=0;exitDy=0;entryX=0.25;entryY=1;entryDx=0;entryDy=0;" parent="i20BuGTm-3Fw7s0QcITg-19" source="i20BuGTm-3Fw7s0QcITg-16" target="i20BuGTm-3Fw7s0QcITg-11" edge="1">
          <mxGeometry relative="1" as="geometry" />
        </mxCell>
        <mxCell id="i20BuGTm-3Fw7s0QcITg-16" value="recollida sortida" style="rhombus;whiteSpace=wrap;html=1;rounded=0;fontStyle=1" parent="i20BuGTm-3Fw7s0QcITg-19" vertex="1">
          <mxGeometry x="800" y="220" width="140" height="80" as="geometry" />
        </mxCell>
        <mxCell id="i20BuGTm-3Fw7s0QcITg-21" value="&lt;div align=&quot;center&quot;&gt;execució&lt;/div&gt;" style="text;whiteSpace=wrap;html=1;align=center;fontStyle=2" parent="i20BuGTm-3Fw7s0QcITg-22" vertex="1">
          <mxGeometry x="20" y="-10" width="70" height="30" as="geometry" />
        </mxCell>
      </root>
    </mxGraphModel>
  </diagram>
</mxfile>
